<?xml version="1.0" encoding="UTF-8"?>
<svg id="_图层_2" data-name="图层 2" xmlns="http://www.w3.org/2000/svg" viewBox="0 0 984.07 733.07">
  <defs>
    <style>
      .cls-1 {
        fill: none;
        stroke: #000;
        stroke-miterlimit: 10;
      }
    </style>
  </defs>
  <rect class="cls-1" x="561.8" y=".5" width="279.07" height="146.41"/>
  <rect class="cls-1" x="561.8" y="586.15" width="279.07" height="146.41"/>
  <rect class="cls-1" x="143.2" y="586.15" width="279.07" height="146.41"/>
  <rect class="cls-1" x="143.2" y=".5" width="279.07" height="146.41"/>
  <polygon class="cls-1" points="840.87 146.91 840.87 293.33 701.33 293.33 701.33 293.33 561.8 293.33 561.8 146.91 422.27 146.91 422.27 293.33 282.73 293.33 282.73 293.33 3.67 293.33 3.67 586.15 143.2 586.15 143.2 439.74 282.73 439.74 422.27 439.74 422.27 586.15 561.8 586.15 561.8 439.74 701.33 439.74 980.4 439.74 980.4 146.91 840.87 146.91"/>
</svg>